# xmcd CD database file
#
# Track frame offsets:
#	150
#	16358
#	34854
#	49138
#	67749
#	81747
#	100729
#	116441
#	132500
#	151256
#	172911
#	191317
#	206994
#	216355
#
# Disc length: 3115 seconds
#
# Revision: 4
# Processed by: cddbd v1.5.1PL2 Copyright (c) Steve Scherf et al.
# Submitted via: CDex 1.51
#
DISCID=c10c290e
DTITLE=Malediva - Malediva leuchtet
DYEAR=2002
DGENRE=
TTITLE0=Das Glück Wartet Draußen Vor der Stadt
TTITLE1=Gott Macht Die Einen Schön
TTITLE2=Verlieb Dich In Dich Selbst
TTITLE3=Der Osten Ist Sexy
TTITLE4=Meine Mutter Hat Hitler Geküsst
TTITLE5=Leni Und Edi
TTITLE6=Der Kosmonaut
TTITLE7=Ich Sitze Hier Und Warte Auf Die Liebe
TTITLE8=Die Kusinen
TTITLE9=El Torito Enamorado De La Luna
TTITLE10=Fotomodell
TTITLE11=Es Wird In Hundert Jahren Wieder So Ein Frühling Sein
TTITLE12=Volvera El Amor (Bonus-Lied)
TTITLE13=Du Du Gehst An Mir Vorbei
EXTD=YEAR: 2002
EXTT0=Das Glück wartet draußen vor der Stadt
EXTT1=
EXTT2=
EXTT3=
EXTT4=
EXTT5=
EXTT6=
EXTT7=
EXTT8=
EXTT9=
EXTT10=
EXTT11=
EXTT12=
EXTT13=
PLAYORDER=
